HIERARCHY
ROOT Hips
{
 OFFSET 0.000000 0.000000 0.000000
 CHANNELS 6 Xposition Yposition Zposition Yrotation Xrotation Zrotation
 JOINT Chest
 {
  OFFSET 0.000000 14.374500 -0.011500
  CHANNELS 3 Yrotation Xrotation Zrotation
  JOINT Chest2
  {
   OFFSET 0.000000 9.203400 0.023400
   CHANNELS 3 Yrotation Xrotation Zrotation
   JOINT Chest3
   {
    OFFSET 0.000000 9.162700 0.000000
    CHANNELS 3 Yrotation Xrotation Zrotation
    JOINT Chest4
    {
     OFFSET 0.000000 9.153300 0.000000
     CHANNELS 3 Yrotation Xrotation Zrotation
     JOINT Neck
     {
      OFFSET 0.000000 13.353600 0.000000
      CHANNELS 3 Yrotation Xrotation Zrotation
      JOINT Head
      {
       OFFSET 0.000000 8.573800 0.049400
       CHANNELS 3 Yrotation Xrotation Zrotation
       End Site
       {
        OFFSET 0.000000 16.219200 0.026100
       }
      }
     }
     JOINT RightCollar
     {
      OFFSET -2.497100 8.876100 0.000000
      CHANNELS 3 Yrotation Xrotation Zrotation
      JOINT RightShoulder
      {
       OFFSET -12.289200 0.000000 0.000000
       CHANNELS 3 Yrotation Xrotation Zrotation
       JOINT RightElbow
       {
        OFFSET 0.000000 -28.194900 0.000000
        CHANNELS 3 Yrotation Xrotation Zrotation
        JOINT RightWrist
        {
         OFFSET 0.000000 -23.009700 0.007900
         CHANNELS 3 Yrotation Xrotation Zrotation
         End Site
         {
          OFFSET 0.000000 -17.151500 0.000000
         }
        }
       }
      }
     }
     JOINT LeftCollar
     {
      OFFSET 2.497100 8.876100 0.000000
      CHANNELS 3 Yrotation Xrotation Zrotation
      JOINT LeftShoulder
      {
       OFFSET 12.289200 0.000000 0.000000
       CHANNELS 3 Yrotation Xrotation Zrotation
       JOINT LeftElbow
       {
        OFFSET 0.000000 -28.194900 0.000000
        CHANNELS 3 Yrotation Xrotation Zrotation
        JOINT LeftWrist
        {
         OFFSET 0.000000 -23.009700 0.007900
         CHANNELS 3 Yrotation Xrotation Zrotation
         End Site
         {
          OFFSET 0.000000 -17.151500 0.000000
         }
        }
       }
      }
     }
    }
   }
  }
 }
 JOINT RightHip
 {
  OFFSET -11.777600 0.056700 0.005700
  CHANNELS 3 Yrotation Xrotation Zrotation
  JOINT RightKnee
  {
   OFFSET 0.000000 -39.966000 -0.004200
   CHANNELS 3 Yrotation Xrotation Zrotation
   JOINT RightAnkle
   {
    OFFSET 0.000000 -41.981900 0.027400
    CHANNELS 3 Yrotation Xrotation Zrotation
    JOINT RightToe
    {
     OFFSET 0.000000 -9.910600 16.950100
     CHANNELS 3 Yrotation Xrotation Zrotation
     End Site
     {
      OFFSET 0.000000 -1.461000 6.191600
     }
    }
   }
  }
 }
 JOINT LeftHip
 {
  OFFSET 11.777600 0.056700 0.005700
  CHANNELS 3 Yrotation Xrotation Zrotation
  JOINT LeftKnee
  {
   OFFSET 0.000000 -39.966000 -0.004200
   CHANNELS 3 Yrotation Xrotation Zrotation
   JOINT LeftAnkle
   {
    OFFSET 0.000000 -41.981900 0.027400
    CHANNELS 3 Yrotation Xrotation Zrotation
    JOINT LeftToe
    {
     OFFSET 0.000000 -9.910600 16.950100
     CHANNELS 3 Yrotation Xrotation Zrotation
     End Site
     {
      OFFSET 0.000000 -1.461000 6.191600
     }
    }
   }
  }
 }
}
MOTION
Frames: 15
Frame Time: 0.008333
-4.032081 130.406385 79.438255 174.550479 -44.131547 -2.614600 4.577107 24.159595 5.927225 0.531937 3.832373 0.804481 0.888580 6.147182 1.291200 3.540149 19.996064 4.685186 3.696869 12.390386 -2.515327 4.537131 -12.676698 -3.590648 -2.378917 -6.120734 1.240759 8.192510 -9.954955 -13.202704 46.413879 -65.432806 -21.390122 33.500473 29.619950 -7.378845 -11.034710 -14.176997 3.859529 -3.233314 -42.372011 38.843082 5.384795 -19.438704 2.998689 -9.670781 -24.740582 43.033851 6.745683 -33.659392 1.729527 -80.354473 84.334500 -84.155158 1.558351 -25.205541 9.618008 0.004143 0.000469 0.002423 0.676131 -26.398836 -2.401211 145.225148 72.090804 156.115709 0.755233 -13.045337 -7.534205 0.000994 0.009959 0.000581
-4.030791 130.408056 79.446680 174.532348 -44.182840 -2.594228 4.580143 24.205495 5.938538 0.537990 3.840634 0.790399 0.890522 6.170297 1.307418 3.537805 20.027609 4.698030 3.824321 12.257643 -2.487369 4.663983 -12.823248 -3.593859 -2.364734 -6.069638 1.245888 8.173024 -10.006096 -13.233255 46.470543 -65.530380 -21.495666 33.506768 29.620308 -7.334473 -11.023487 -14.071883 3.846781 -3.029014 -42.362149 38.797954 5.324463 -20.002285 2.838226 -9.766752 -24.869627 43.285864 6.752445 -33.612628 1.729094 -80.329805 84.329694 -84.130563 1.568000 -25.202997 9.615430 0.005470 0.002507 0.003198 0.686170 -26.354845 -2.408003 145.181888 72.097203 156.071171 0.742061 -13.017061 -7.535203 0.001340 0.009666 0.000784
-4.031096 130.405767 79.459259 174.520370 -44.213128 -2.573631 4.576150 24.231921 5.962783 0.541525 3.859023 0.776296 0.890818 6.166832 1.289641 3.552450 20.084472 4.731477 3.946805 12.111316 -2.463070 4.791617 -12.979189 -3.598153 -2.365319 -6.030638 1.248371 8.172373 -10.083324 -13.278952 46.496264 -65.562782 -21.539328 33.445563 29.596233 -7.348900 -11.024179 -13.981565 3.839510 -2.865235 -42.348139 38.780869 5.260753 -20.532204 2.708069 -9.838982 -25.011340 43.496281 6.730831 -33.595773 1.723015 -80.381732 84.344392 -84.207540 1.579644 -25.200631 9.614740 -0.000499 0.001545 -0.000292 0.692448 -26.338326 -2.421509 145.146290 72.099893 156.032221 0.731800 -12.987769 -7.535348 0.001376 0.013818 0.000805
-4.028313 130.403200 79.472767 174.518520 -44.241904 -2.573287 4.579549 24.259335 5.983723 0.544709 3.889623 0.800928 0.888418 6.175703 1.274572 3.581161 20.172241 4.771857 4.044212 11.905292 -2.466806 4.918319 -13.139752 -3.602799 -2.387561 -6.056520 1.231151 8.178245 -10.172065 -13.326964 46.446239 -65.644235 -21.532846 33.449096 29.592389 -7.310844 -11.045724 -13.960859 3.826122 -2.747586 -42.324625 38.793713 5.227498 -21.040580 2.608625 -9.891137 -25.153897 43.627045 6.725382 -33.571459 1.727633 -80.331922 84.337564 -84.149594 1.581911 -25.200708 9.611167 0.001460 0.008051 0.000854 0.675997 -26.339486 -2.413231 145.164982 72.095174 156.039415 0.725170 -12.946966 -7.533580 0.000124 0.010089 0.000073
-4.026645 130.410267 79.476193 174.490530 -44.326746 -2.547241 4.605674 24.342883 6.003843 0.546933 3.906566 0.804498 0.891764 6.201825 1.277860 3.595332 20.223525 4.792640 4.151816 11.727455 -2.449913 5.043244 -13.305166 -3.608076 -2.401629 -6.054120 1.230965 8.178589 -10.233368 -13.375005 46.434932 -65.739152 -21.566667 33.446986 29.590055 -7.279932 -11.069423 -13.913025 3.826430 -2.662367 -42.285185 38.828779 5.247618 -21.552144 2.540327 -9.945480 -25.282549 43.665728 6.726707 -33.494226 1.730287 -80.267557 84.335264 -84.082183 1.598369 -25.193256 9.599981 0.008024 0.001921 0.004692 0.693660 -26.265737 -2.416630 145.146717 72.105324 156.016040 0.718629 -12.901556 -7.530752 -0.000357 -0.000249 -0.000209
-4.026953 130.408232 79.488600 174.484707 -44.358426 -2.533310 4.613632 24.375360 6.017990 0.549354 3.923912 0.808296 0.888919 6.223207 1.282599 3.609460 20.262292 4.803680 4.263530 11.558851 -2.425945 5.166512 -13.480518 -3.614555 -2.410578 -6.040777 1.235376 8.158943 -10.246298 -13.426662 46.411474 -65.922089 -21.621787 33.516840 29.607909 -7.202146 -11.104994 -13.856831 3.830567 -2.578082 -42.225654 38.866128 5.321140 -22.089617 2.509492 -10.023375 -25.387504 43.627201 6.711650 -33.470233 1.724727 -80.278854 84.344600 -84.108914 1.599033 -25.202736 9.605030 0.005855 0.002890 0.003424 0.697012 -26.247203 -2.424112 145.127715 72.114423 155.993609 0.712510 -12.872878 -7.529490 0.000569 0.004621 0.000333
-4.027006 130.405895 79.501123 174.480188 -44.386774 -2.522523 4.623231 24.405488 6.034986 0.551936 3.941303 0.812522 0.893332 6.249642 1.288770 3.617652 20.295431 4.816838 4.375292 11.378350 -2.403722 5.291425 -13.668695 -3.623551 -2.420951 -6.036416 1.234683 8.141939 -10.289961 -13.465333 46.375377 -66.038048 -21.636632 33.545039 29.616557 -7.156182 -11.156597 -13.809184 3.834707 -2.464487 -42.151969 38.881749 5.431911 -22.661599 2.517718 -10.118121 -25.470362 43.550650 6.689847 -33.447590 1.718340 -80.238289 84.356063 -84.074912 1.592111 -25.215426 9.607305 0.006853 0.004052 0.004007 0.700454 -26.231600 -2.429233 145.098995 72.123612 155.963599 0.704049 -12.848099 -7.528616 0.000943 0.007656 0.000552
-4.026609 130.407706 79.509083 174.466991 -44.436841 -2.506901 4.641535 24.459096 6.056690 0.551747 3.952263 0.809927 0.913156 6.313489 1.324419 3.603184 20.296404 4.809140 4.491277 11.187729 -2.383511 5.422639 -13.867831 -3.636379 -2.429902 -6.039836 1.223509 8.127406 -10.334501 -13.498020 46.332736 -66.131180 -21.632975 33.553383 29.623671 -7.128186 -11.214326 -13.765394 3.834582 -2.313733 -42.081102 38.874048 5.570650 -23.256114 2.547134 -10.205099 -25.549507 43.480243 6.676234 -33.403997 1.713645 -80.186460 84.357210 -84.028584 1.599637 -25.219598 9.607658 0.006351 0.002090 0.003713 0.711890 -26.191449 -2.433816 145.052029 72.132118 155.916958 0.689775 -12.813344 -7.527296 0.000126 0.007827 0.000074
-4.026599 130.409628 79.516379 174.458080 -44.484740 -2.493659 4.655669 24.513675 6.079062 0.553154 3.969146 0.814952 0.905829 6.301280 1.304745 3.625608 20.364895 4.856073 4.614208 10.989809 -2.364507 5.562968 -14.075056 -3.652718 -2.440706 -6.086030 1.192660 8.122125 -10.359841 -13.513940 46.237743 -66.210942 -21.572209 33.562481 29.634478 -7.104374 -11.271100 -13.728903 3.827517 -2.145325 -42.027306 38.869539 5.749023 -23.849342 2.566403 -10.268159 -25.645447 43.456152 6.658182 -33.361779 1.706605 -80.142693 84.361996 -83.991174 1.609134 -25.222787 9.601598 0.005531 0.002448 0.003234 0.722403 -26.149111 -2.440219 144.995706 72.141913 155.861987 0.677755 -12.778259 -7.531915 -0.001450 0.014232 -0.000848
-4.027649 130.410425 79.524057 174.459216 -44.522748 -2.484502 4.657910 24.561569 6.096194 0.556694 3.992179 0.827265 0.907997 6.318488 1.306548 3.612240 20.358470 4.843339 4.756986 10.829228 -2.318049 5.712073 -14.285814 -3.670986 -2.443958 -6.092838 1.180445 8.107954 -10.353135 -13.524355 46.224819 -66.291661 -21.584088 33.547243 29.640908 -7.100542 -11.321682 -13.657197 3.831147 -1.977497 -42.001988 38.896065 5.980238 -24.419331 2.546795 -10.301754 -25.768024 43.510858 6.615668 -33.329761 1.695242 -80.080225 84.381270 -83.952436 1.622679 -25.230127 9.600350 -0.000006 -0.000918 -0.000003 0.722968 -26.124053 -2.444715 144.975764 72.148973 155.837917 0.665318 -12.751722 -7.529744 -0.000687 0.012631 -0.000402
-4.027327 130.411366 79.531010 174.460857 -44.557696 -2.481886 4.657411 24.608647 6.115657 0.559055 3.994330 0.820105 0.918582 6.396566 1.352526 3.603649 20.373974 4.841057 4.886601 10.609450 -2.312122 5.869520 -14.495687 -3.690907 -2.450276 -6.068009 1.161827 8.106841 -10.438952 -13.568353 46.182764 -66.376492 -21.572452 33.552977 29.654691 -7.096722 -11.374631 -13.663110 3.809973 -1.802291 -42.018223 38.963371 6.261823 -24.957525 2.469056 -10.312179 -25.915326 43.640233 6.600230 -33.298008 1.691715 -80.015375 84.380151 -83.889904 1.625287 -25.240475 9.607594 0.002556 -0.003411 0.001495 0.724834 -26.105134 -2.445762 144.953584 72.152140 155.815519 0.654293 -12.722082 -7.526221 -0.002299 0.007621 -0.001345
-4.025849 130.415978 79.533441 174.444446 -44.609636 -2.470352 4.667496 24.673622 6.133846 0.565756 3.995710 0.817402 0.917493 6.447469 1.374113 3.606102 20.412546 4.854616 5.024233 10.392658 -2.305145 6.035712 -14.702864 -3.712201 -2.455551 -6.138700 1.123186 8.109990 -10.438674 -13.569491 46.100189 -66.459897 -21.526607 33.613594 29.676977 -7.073384 -11.421518 -13.675183 3.789798 -1.597824 -42.081939 39.065974 6.585236 -25.468990 2.325596 -10.307503 -26.068556 43.803245 6.605459 -33.247868 1.695777 -79.921587 84.365428 -83.790317 1.630299 -25.243656 9.613119 0.006724 -0.004857 0.003931 0.741194 -26.064096 -2.441358 144.924094 72.158729 155.787034 0.643454 -12.685185 -7.524134 -0.003921 -0.001200 -0.002293
-4.022948 130.413905 79.541779 174.440634 -44.618072 -2.476433 4.666059 24.694938 6.150829 0.562803 4.032683 0.836466 0.923312 6.435519 1.358376 3.606041 20.434302 4.859603 5.171911 10.216779 -2.276666 6.210547 -14.905349 -3.733752 -2.456593 -6.163549 1.107689 8.125826 -10.442172 -13.572357 46.043679 -66.512382 -21.505750 33.641277 29.688110 -7.066321 -11.470803 -13.655338 3.784137 -1.350555 -42.183708 39.193480 6.940358 -25.965091 2.128731 -10.287159 -26.203399 43.956546 6.587725 -33.247157 1.695661 -79.797065 84.352407 -83.656903 1.663293 -25.236141 9.598240 0.007964 -0.001691 0.004657 0.739658 -26.070249 -2.420701 144.948095 72.160342 155.810529 0.637348 -12.668906 -7.525082 -0.002647 -0.000578 -0.001547
-4.020949 130.415928 79.544383 174.429139 -44.644950 -2.472098 4.667251 24.735158 6.157753 0.562684 4.044774 0.837867 0.932567 6.422658 1.355007 3.594032 20.489863 4.868190 5.329701 10.031207 -2.252596 6.393524 -15.101844 -3.755067 -2.460177 -6.173791 1.097943 8.163031 -10.466992 -13.578951 46.001454 -66.551129 -21.498928 33.589887 29.686907 -7.102978 -11.518870 -13.666273 3.785346 -1.070209 -42.304101 39.343645 7.320913 -26.454038 1.907887 -10.249146 -26.308578 44.063553 6.576947 -33.224973 1.694574 -79.674512 84.350107 -83.530721 1.679892 -25.230161 9.588527 0.006843 -0.001217 0.004001 0.745370 -26.049180 -2.406106 144.959015 72.167019 155.818255 0.632241 -12.646819 -7.530854 -0.002263 -0.000097 -0.001323
-4.020172 130.418849 79.544372 174.417286 -44.670692 -2.462428 4.662181 24.779117 6.152547 0.559138 4.060701 0.839921 0.940008 6.431996 1.361146 3.575371 20.528387 4.858808 5.496208 9.834779 -2.233945 6.583245 -15.293611 -3.776679 -2.498488 -6.182965 1.084293 8.233148 -10.521857 -13.574699 45.978609 -66.568742 -21.488048 33.576088 29.687224 -7.112003 -11.543421 -13.715116 3.790867 -0.805572 -42.426450 39.522266 7.742327 -26.933363 1.686170 -10.196994 -26.386415 44.105773 6.574874 -33.202078 1.686529 -79.568534 84.355275 -83.420838 1.687933 -25.231425 9.588565 0.006483 -0.004720 0.003790 0.752638 -26.026689 -2.394408 144.939671 72.176151 155.791664 0.617147 -12.622707 -7.529882 -0.001506 -0.004443 -0.000881
